<mxfile host="app.diagrams.net" modified="2020-12-08T16:08:37.898Z" agent="5.0 (X11; Linux x86_64) AppleWebKit/537.36 (KHTML, like Gecko) Chrome/87.0.4280.88 Safari/537.36" etag="1FcXzhSPqVDbp1nrMVkS" version="13.11.0" type="github">
  <diagram id="U8gXAKNHkGwuQdSAH4Lm" name="Page-1">
    <mxGraphModel dx="981" dy="534" grid="1" gridSize="10" guides="1" tooltips="1" connect="1" arrows="1" fold="1" page="1" pageScale="1" pageWidth="827" pageHeight="1169" math="0" shadow="0">
      <root>
        <mxCell id="0" />
        <mxCell id="1" parent="0" />
        <mxCell id="fFwwaKKDndFWqP_F9F3J-2" value="User" style="rounded=0;whiteSpace=wrap;html=1;" parent="1" vertex="1">
          <mxGeometry x="38" y="331" width="121" height="60" as="geometry" />
        </mxCell>
        <mxCell id="05JTSwYzqi0tmH8Jq9xY-1" value="GeneralUser" style="swimlane;fontStyle=0;childLayout=stackLayout;horizontal=1;startSize=26;fillColor=none;horizontalStack=0;resizeParent=1;resizeParentMax=0;resizeLast=0;collapsible=1;marginBottom=0;" parent="1" vertex="1">
          <mxGeometry x="170" y="150" width="140" height="110" as="geometry" />
        </mxCell>
        <mxCell id="05JTSwYzqi0tmH8Jq9xY-2" value="- firstName: String&#xa;- lasName: String&#xa;- picture: String&#xa;- username: String&#xa;- password: StringÂ " style="text;strokeColor=none;fillColor=none;align=left;verticalAlign=top;spacingLeft=4;spacingRight=4;overflow=hidden;rotatable=0;points=[[0,0.5],[1,0.5]];portConstraint=eastwest;" parent="05JTSwYzqi0tmH8Jq9xY-1" vertex="1">
          <mxGeometry y="26" width="140" height="84" as="geometry" />
        </mxCell>
        <mxCell id="05JTSwYzqi0tmH8Jq9xY-14" value="Recipe" style="swimlane;fontStyle=0;childLayout=stackLayout;horizontal=1;startSize=26;fillColor=none;horizontalStack=0;resizeParent=1;resizeParentMax=0;resizeLast=0;collapsible=1;marginBottom=0;" parent="1" vertex="1">
          <mxGeometry x="510" y="150" width="160" height="180" as="geometry" />
        </mxCell>
        <mxCell id="05JTSwYzqi0tmH8Jq9xY-15" value="- title: String&#xa;- picture: String&#xa;- instructions: String&#xa;- ingredients: String[]&#xa;- categories: String[]&#xa;- creationTime: Timestamp&#xa;- calories: int&#xa;- fat: int&#xa;- protein: int&#xa;- carbs: int" style="text;strokeColor=none;fillColor=none;align=left;verticalAlign=top;spacingLeft=4;spacingRight=4;overflow=hidden;rotatable=0;points=[[0,0.5],[1,0.5]];portConstraint=eastwest;" parent="05JTSwYzqi0tmH8Jq9xY-14" vertex="1">
          <mxGeometry y="26" width="160" height="154" as="geometry" />
        </mxCell>
        <mxCell id="05JTSwYzqi0tmH8Jq9xY-16" value="Comment" style="swimlane;fontStyle=0;childLayout=stackLayout;horizontal=1;startSize=26;fillColor=none;horizontalStack=0;resizeParent=1;resizeParentMax=0;resizeLast=0;collapsible=1;marginBottom=0;" parent="1" vertex="1">
          <mxGeometry x="344" y="40" width="140" height="70" as="geometry" />
        </mxCell>
        <mxCell id="05JTSwYzqi0tmH8Jq9xY-17" value="- text: String&#xa;- timestamp: Timestamp" style="text;strokeColor=none;fillColor=none;align=left;verticalAlign=top;spacingLeft=4;spacingRight=4;overflow=hidden;rotatable=0;points=[[0,0.5],[1,0.5]];portConstraint=eastwest;" parent="05JTSwYzqi0tmH8Jq9xY-16" vertex="1">
          <mxGeometry y="26" width="140" height="44" as="geometry" />
        </mxCell>
        <mxCell id="fFwwaKKDndFWqP_F9F3J-5" value="Paella" style="ellipse;whiteSpace=wrap;html=1;aspect=fixed;fillColor=#f8cecc;strokeColor=#b85450;" parent="1" vertex="1">
          <mxGeometry x="418" y="810" width="80" height="80" as="geometry" />
        </mxCell>
        <mxCell id="fFwwaKKDndFWqP_F9F3J-20" style="edgeStyle=orthogonalEdgeStyle;curved=1;orthogonalLoop=1;jettySize=auto;html=1;exitX=0.5;exitY=0;exitDx=0;exitDy=0;entryX=0;entryY=0.5;entryDx=0;entryDy=0;fillColor=#d80073;strokeColor=#A50040;" parent="1" source="fFwwaKKDndFWqP_F9F3J-6" target="fFwwaKKDndFWqP_F9F3J-5" edge="1">
          <mxGeometry relative="1" as="geometry" />
        </mxCell>
        <mxCell id="fFwwaKKDndFWqP_F9F3J-21" value="Add" style="edgeLabel;html=1;align=center;verticalAlign=middle;resizable=0;points=[];" parent="fFwwaKKDndFWqP_F9F3J-20" vertex="1" connectable="0">
          <mxGeometry x="-0.0132" y="-17" relative="1" as="geometry">
            <mxPoint as="offset" />
          </mxGeometry>
        </mxCell>
        <mxCell id="fFwwaKKDndFWqP_F9F3J-6" value="Pietro" style="ellipse;whiteSpace=wrap;html=1;aspect=fixed;fillColor=#dae8fc;strokeColor=#6c8ebf;" parent="1" vertex="1">
          <mxGeometry x="254" y="915" width="80" height="80" as="geometry" />
        </mxCell>
        <mxCell id="fFwwaKKDndFWqP_F9F3J-11" style="edgeStyle=orthogonalEdgeStyle;curved=1;orthogonalLoop=1;jettySize=auto;html=1;exitX=0;exitY=0.5;exitDx=0;exitDy=0;entryX=1;entryY=0.5;entryDx=0;entryDy=0;fillColor=#008a00;strokeColor=#005700;" parent="1" source="fFwwaKKDndFWqP_F9F3J-9" target="fFwwaKKDndFWqP_F9F3J-6" edge="1">
          <mxGeometry relative="1" as="geometry" />
        </mxCell>
        <mxCell id="fFwwaKKDndFWqP_F9F3J-12" value="Follow" style="edgeLabel;html=1;align=center;verticalAlign=middle;resizable=0;points=[];" parent="fFwwaKKDndFWqP_F9F3J-11" vertex="1" connectable="0">
          <mxGeometry x="-0.2403" y="-5" relative="1" as="geometry">
            <mxPoint as="offset" />
          </mxGeometry>
        </mxCell>
        <mxCell id="fFwwaKKDndFWqP_F9F3J-14" style="edgeStyle=orthogonalEdgeStyle;curved=1;orthogonalLoop=1;jettySize=auto;html=1;exitX=1;exitY=0;exitDx=0;exitDy=0;entryX=0.5;entryY=1;entryDx=0;entryDy=0;fillColor=#a20025;strokeColor=#6F0000;" parent="1" source="fFwwaKKDndFWqP_F9F3J-9" target="fFwwaKKDndFWqP_F9F3J-5" edge="1">
          <mxGeometry relative="1" as="geometry" />
        </mxCell>
        <mxCell id="fFwwaKKDndFWqP_F9F3J-15" value="Comment" style="edgeLabel;html=1;align=center;verticalAlign=middle;resizable=0;points=[];" parent="fFwwaKKDndFWqP_F9F3J-14" vertex="1" connectable="0">
          <mxGeometry x="-0.3508" y="6" relative="1" as="geometry">
            <mxPoint as="offset" />
          </mxGeometry>
        </mxCell>
        <mxCell id="fFwwaKKDndFWqP_F9F3J-18" style="edgeStyle=orthogonalEdgeStyle;curved=1;orthogonalLoop=1;jettySize=auto;html=1;exitX=1;exitY=0.5;exitDx=0;exitDy=0;entryX=1;entryY=0.5;entryDx=0;entryDy=0;fillColor=#e3c800;strokeColor=#B09500;" parent="1" source="fFwwaKKDndFWqP_F9F3J-9" target="fFwwaKKDndFWqP_F9F3J-5" edge="1">
          <mxGeometry relative="1" as="geometry" />
        </mxCell>
        <mxCell id="fFwwaKKDndFWqP_F9F3J-19" value="Like" style="edgeLabel;html=1;align=center;verticalAlign=middle;resizable=0;points=[];" parent="fFwwaKKDndFWqP_F9F3J-18" vertex="1" connectable="0">
          <mxGeometry x="-0.3328" y="-2" relative="1" as="geometry">
            <mxPoint as="offset" />
          </mxGeometry>
        </mxCell>
        <mxCell id="fFwwaKKDndFWqP_F9F3J-9" value="Gionatan" style="ellipse;whiteSpace=wrap;html=1;aspect=fixed;fillColor=#dae8fc;strokeColor=#6c8ebf;" parent="1" vertex="1">
          <mxGeometry x="418" y="960" width="80" height="80" as="geometry" />
        </mxCell>
        <mxCell id="05JTSwYzqi0tmH8Jq9xY-9" value="" style="edgeStyle=none;html=1;endSize=12;endArrow=block;endFill=0;entryX=0.5;entryY=1;entryDx=0;entryDy=0;" parent="1" target="05JTSwYzqi0tmH8Jq9xY-1" edge="1">
          <mxGeometry width="160" relative="1" as="geometry">
            <mxPoint x="240" y="300" as="sourcePoint" />
            <mxPoint x="298" y="300" as="targetPoint" />
          </mxGeometry>
        </mxCell>
        <mxCell id="05JTSwYzqi0tmH8Jq9xY-12" value="" style="endArrow=none;html=1;exitX=0.446;exitY=0;exitDx=0;exitDy=0;exitPerimeter=0;" parent="1" source="fFwwaKKDndFWqP_F9F3J-2" edge="1">
          <mxGeometry width="50" height="50" relative="1" as="geometry">
            <mxPoint x="92" y="330" as="sourcePoint" />
            <mxPoint x="240" y="301" as="targetPoint" />
            <Array as="points">
              <mxPoint x="92" y="301" />
            </Array>
          </mxGeometry>
        </mxCell>
        <mxCell id="05JTSwYzqi0tmH8Jq9xY-13" value="" style="endArrow=none;html=1;exitX=0.5;exitY=0;exitDx=0;exitDy=0;" parent="1" edge="1">
          <mxGeometry width="50" height="50" relative="1" as="geometry">
            <mxPoint x="380" y="331" as="sourcePoint" />
            <mxPoint x="240" y="301" as="targetPoint" />
            <Array as="points">
              <mxPoint x="380" y="301" />
            </Array>
          </mxGeometry>
        </mxCell>
        <mxCell id="05JTSwYzqi0tmH8Jq9xY-22" value="" style="endArrow=none;html=1;entryX=0.214;entryY=0;entryDx=0;entryDy=0;entryPerimeter=0;exitX=0.867;exitY=0.01;exitDx=0;exitDy=0;exitPerimeter=0;" parent="1" source="05JTSwYzqi0tmH8Jq9xY-25" target="05JTSwYzqi0tmH8Jq9xY-1" edge="1">
          <mxGeometry width="50" height="50" relative="1" as="geometry">
            <mxPoint x="150" y="180" as="sourcePoint" />
            <mxPoint x="280.28" y="94.78599999999997" as="targetPoint" />
            <Array as="points">
              <mxPoint x="130" y="170" />
              <mxPoint x="130" y="120" />
              <mxPoint x="200" y="120" />
            </Array>
          </mxGeometry>
        </mxCell>
        <mxCell id="05JTSwYzqi0tmH8Jq9xY-24" value="0...*" style="text;html=1;align=center;verticalAlign=middle;resizable=0;points=[];autosize=1;" parent="1" vertex="1">
          <mxGeometry x="200" y="130" width="40" height="20" as="geometry" />
        </mxCell>
        <mxCell id="05JTSwYzqi0tmH8Jq9xY-25" value="0...*" style="text;html=1;align=center;verticalAlign=middle;resizable=0;points=[];autosize=1;" parent="1" vertex="1">
          <mxGeometry x="135" y="170" width="40" height="20" as="geometry" />
        </mxCell>
        <mxCell id="05JTSwYzqi0tmH8Jq9xY-26" value="" style="endArrow=none;html=1;exitX=0.75;exitY=0;exitDx=0;exitDy=0;entryX=0;entryY=0.25;entryDx=0;entryDy=0;" parent="1" source="05JTSwYzqi0tmH8Jq9xY-1" target="05JTSwYzqi0tmH8Jq9xY-16" edge="1">
          <mxGeometry width="50" height="50" relative="1" as="geometry">
            <mxPoint x="400" y="170" as="sourcePoint" />
            <mxPoint x="450" y="120" as="targetPoint" />
            <Array as="points">
              <mxPoint x="275" y="58" />
            </Array>
          </mxGeometry>
        </mxCell>
        <mxCell id="05JTSwYzqi0tmH8Jq9xY-28" value="1" style="text;html=1;align=center;verticalAlign=middle;resizable=0;points=[];autosize=1;" parent="1" vertex="1">
          <mxGeometry x="254" y="130" width="20" height="20" as="geometry" />
        </mxCell>
        <mxCell id="05JTSwYzqi0tmH8Jq9xY-29" value="0...*" style="text;html=1;align=center;verticalAlign=middle;resizable=0;points=[];autosize=1;" parent="1" vertex="1">
          <mxGeometry x="304" y="40" width="40" height="20" as="geometry" />
        </mxCell>
        <mxCell id="05JTSwYzqi0tmH8Jq9xY-30" value="" style="endArrow=none;html=1;entryX=1;entryY=0.25;entryDx=0;entryDy=0;exitX=0.407;exitY=0;exitDx=0;exitDy=0;exitPerimeter=0;" parent="1" source="05JTSwYzqi0tmH8Jq9xY-14" target="05JTSwYzqi0tmH8Jq9xY-16" edge="1">
          <mxGeometry width="50" height="50" relative="1" as="geometry">
            <mxPoint x="570" y="140" as="sourcePoint" />
            <mxPoint x="354" y="67.5" as="targetPoint" />
            <Array as="points">
              <mxPoint x="575" y="58" />
            </Array>
          </mxGeometry>
        </mxCell>
        <mxCell id="05JTSwYzqi0tmH8Jq9xY-34" value="1" style="text;html=1;align=center;verticalAlign=middle;resizable=0;points=[];autosize=1;" parent="1" vertex="1">
          <mxGeometry x="575" y="130" width="20" height="20" as="geometry" />
        </mxCell>
        <mxCell id="05JTSwYzqi0tmH8Jq9xY-35" value="0...*" style="text;html=1;align=center;verticalAlign=middle;resizable=0;points=[];autosize=1;" parent="1" vertex="1">
          <mxGeometry x="484" y="40" width="40" height="20" as="geometry" />
        </mxCell>
        <mxCell id="05JTSwYzqi0tmH8Jq9xY-36" value="" style="endArrow=none;html=1;entryX=1.002;entryY=0.922;entryDx=0;entryDy=0;entryPerimeter=0;exitX=0.996;exitY=0.883;exitDx=0;exitDy=0;exitPerimeter=0;" parent="1" edge="1">
          <mxGeometry width="50" height="50" relative="1" as="geometry">
            <mxPoint x="309.43999999999994" y="215.17200000000003" as="sourcePoint" />
            <mxPoint x="510.0799999999999" y="215.44" as="targetPoint" />
          </mxGeometry>
        </mxCell>
        <mxCell id="05JTSwYzqi0tmH8Jq9xY-38" value="0...*" style="text;html=1;align=center;verticalAlign=middle;resizable=0;points=[];autosize=1;" parent="1" vertex="1">
          <mxGeometry x="310" y="196" width="40" height="20" as="geometry" />
        </mxCell>
        <mxCell id="05JTSwYzqi0tmH8Jq9xY-39" value="0...*" style="text;html=1;align=center;verticalAlign=middle;resizable=0;points=[];autosize=1;" parent="1" vertex="1">
          <mxGeometry x="470" y="196" width="40" height="20" as="geometry" />
        </mxCell>
        <mxCell id="ucuXB5kv-wwgIhNws_qR-1" value="Moderator" style="rounded=0;whiteSpace=wrap;html=1;" vertex="1" parent="1">
          <mxGeometry x="180" y="331" width="120" height="60" as="geometry" />
        </mxCell>
        <mxCell id="ucuXB5kv-wwgIhNws_qR-2" value="Administrator" style="rounded=0;whiteSpace=wrap;html=1;" vertex="1" parent="1">
          <mxGeometry x="320" y="331" width="120" height="60" as="geometry" />
        </mxCell>
        <mxCell id="ucuXB5kv-wwgIhNws_qR-3" value="" style="endArrow=none;html=1;exitX=0.5;exitY=0;exitDx=0;exitDy=0;" edge="1" parent="1" source="ucuXB5kv-wwgIhNws_qR-1">
          <mxGeometry width="50" height="50" relative="1" as="geometry">
            <mxPoint x="370" y="350" as="sourcePoint" />
            <mxPoint x="240" y="300" as="targetPoint" />
          </mxGeometry>
        </mxCell>
      </root>
    </mxGraphModel>
  </diagram>
</mxfile>
